<svg width="180" height="180" viewBox="0 0 180 180" fill="none" xmlns="http://www.w3.org/2000/svg">
<g clip-path="url(#clip0_8392_37823)">
<path d="M115.852 164.007H64.1524C37.8598 164.007 16.4675 142.562 16.4675 116.205V113.145C12.5091 110.568 10.0023 106.103 10.0023 101.241V66.3862C10.0023 61.0338 13.0402 56.1925 17.6501 53.786C22.529 32.0783 41.7049 16.5677 64.1524 16.5677H115.852C138.427 16.5677 157.639 32.1919 162.411 54.0487C167.042 56.6255 170.002 61.5378 170.002 66.9967V100.609C170.002 105.599 167.545 110.142 163.537 112.854V116.19C163.537 142.548 142.145 163.993 115.845 163.993L115.852 164.007ZM64.1524 25.3701C45.1606 25.3701 29.0366 38.9711 25.8218 57.7116L25.3544 60.4446L22.6919 61.197C20.3905 61.8501 18.7901 63.9797 18.7901 66.3791V101.234C18.7901 103.498 20.2205 105.535 22.3449 106.302L25.2482 107.345V116.198C25.2482 137.706 42.7034 155.198 64.1524 155.198H115.852C137.308 155.198 154.764 137.699 154.764 116.198V107.289L157.497 106.174C159.763 105.244 161.229 103.065 161.229 100.609V66.9967C161.229 64.4127 159.586 62.1199 157.143 61.3035L154.643 60.4659L154.204 57.8607C151.046 39.035 134.922 25.3701 115.852 25.3701H64.1524Z" fill="#7E4BDE"/>
<path d="M117.284 36.2753C131.914 36.2753 143.782 48.1658 143.782 62.8387V91.0985C143.782 105.764 131.921 117.662 117.284 117.662H62.8155C48.1859 117.662 36.3185 105.771 36.3184 91.0985V62.8387H36.3253C36.3253 48.1729 48.1864 36.2753 62.8233 36.2753H117.284ZM78.9913 97.1337H100.999V91.2059H78.9913V97.1337ZM73.085 91.205H78.9835V85.285H73.085V91.205ZM101.003 91.205H107.015V85.285H101.003V91.205ZM64.9971 59.3309C59.5375 59.3309 55.1046 63.7749 55.1046 69.2479C55.1047 74.7208 59.5376 79.1639 64.9971 79.1639C70.4636 79.1638 74.8895 74.7208 74.8897 69.2479C74.8897 63.7749 70.4567 59.331 64.9971 59.3309ZM115.095 59.3309C109.635 59.3309 105.202 63.7749 105.202 69.2479C105.202 74.7208 109.635 79.1639 115.095 79.1639C120.561 79.1639 124.987 74.7208 124.987 69.2479C124.987 63.7749 120.554 59.331 115.095 59.3309Z" fill="#7E4BDE"/>
</g>
<defs>
<clipPath id="clip0_8392_37823">
<rect width="160" height="147.439" fill="white" transform="translate(10.0006 16.5693)"/>
</clipPath>
</defs>
</svg>
